<svg width="116" height="20" viewBox="0 0 116 20" fill="none" xmlns="http://www.w3.org/2000/svg">
<path d="M17.58 20V9.3L16.48 7.88H13.46L11.12 19.32H9.36L7.02 7.88H3.98L2.9 9.3V20H1V8.66L3.04 6H8.56L10.24 14.18L11.9 6H17.44L19.48 8.66V20H17.58ZM31.6483 20H23.5083L21.4883 17.34V8.66L23.5083 6H31.6483L33.6483 8.66V17.34L31.6483 20ZM31.7883 9.3L30.7283 7.88H24.4283L23.3483 9.3V16.7L24.4283 18.12H30.7283L31.7883 16.7V9.3ZM52.2284 20V9.3L51.1284 7.88H48.1084L45.7684 19.32H44.0084L41.6684 7.88H38.6284L37.5484 9.3V20H35.6484V8.66L37.6884 6H43.2084L44.8884 14.18L46.5484 6H52.0884L54.1284 8.66V20H52.2284ZM58.1367 20L56.1367 17.32V8.68L58.1367 6H64.8967V7.88H59.0567L57.9967 9.32V12.1H63.5367V13.98H57.9967V16.68L59.0567 18.12H64.8967V20H58.1367ZM74.8231 20L71.8031 7.9H69.6231L68.5431 9.32V19.98H66.7031V8.68L68.6831 6.02H73.2631L76.2631 18.12H76.5831V6H78.4231V20H74.8231ZM87.6541 7.88L86.6141 9.3V20H84.7541V9.3L83.6941 7.88H80.2141V6H84.5941L85.6741 7.42L86.7541 6H91.1941V7.88H87.6541ZM106.54 14.98V18.88H104.7V14.98H100.8V13.14H104.7V9.24H106.54V13.14H110.44V14.98H106.54Z" fill="white"/>
</svg>
